<svg width="49" height="48" viewBox="0 0 49 48" fill="none" xmlns="http://www.w3.org/2000/svg">
<g clip-path="url(#clip0_1_462)">
<g clip-path="url(#clip1_1_462)">
<path d="M43.5886 12.5253H38.519V7.45569C38.519 6.55932 38.1629 5.69967 37.5291 5.06585C36.8953 4.43202 36.0356 4.07594 35.1393 4.07594H14.8608C13.9644 4.07594 13.1048 4.43202 12.4709 5.06585C11.8371 5.69967 11.481 6.55932 11.481 7.45569V12.5253H6.41142C5.06687 12.5253 3.77739 13.0594 2.82665 14.0102C1.87592 14.9609 1.3418 16.2504 1.3418 17.5949V41.2532C1.3418 42.1495 1.69788 43.0092 2.3317 43.643C2.96553 44.2768 3.82518 44.6329 4.72154 44.6329H45.2785C46.1749 44.6329 47.0345 44.2768 47.6683 43.643C48.3022 43.0092 48.6582 42.1495 48.6582 41.2532V17.5949C48.6582 16.2504 48.1241 14.9609 47.1734 14.0102C46.2227 13.0594 44.9332 12.5253 43.5886 12.5253ZM14.8608 7.45569H35.1393V12.5253H14.8608V7.45569ZM45.2785 41.2532H4.72154V26.0443H18.2405V34.4937H31.7595V26.0443H45.2785V41.2532ZM21.6203 26.0443H28.3798V31.1139H21.6203V26.0443ZM4.72154 22.6645V17.5949C4.72154 17.1467 4.89958 16.7169 5.2165 16.4C5.53341 16.0831 5.96323 15.9051 6.41142 15.9051H43.5886C44.0368 15.9051 44.4666 16.0831 44.7836 16.4C45.1005 16.7169 45.2785 17.1467 45.2785 17.5949V22.6645H4.72154Z" fill="#00A0C1"/>
</g>
</g>
<defs>
<clipPath id="clip0_1_462">
<rect width="48" height="48" fill="white" transform="translate(0.5)"/>
</clipPath>
<clipPath id="clip1_1_462">
<rect width="48" height="40.7089" fill="white" transform="translate(1 4)"/>
</clipPath>
</defs>
</svg>
