<svg width="49" height="48" viewBox="0 0 49 48" fill="none" xmlns="http://www.w3.org/2000/svg">
<g clip-path="url(#clip0_1_455)">
<path d="M16.0642 33.9948C15.2532 33.1802 15.676 33.4098 13.7197 32.8839C12.8321 32.6448 12.0518 32.1855 11.3462 31.6352L7.1117 42.0639C6.70196 43.0736 7.4673 44.1705 8.55183 44.1292L13.4696 43.9408L16.852 47.5295C17.5986 48.3208 18.909 48.0742 19.3188 47.0645L24.1768 35.1002C23.165 35.6664 22.0422 35.9983 20.8812 35.9983C19.0612 35.9983 17.3513 35.2867 16.0642 33.9948ZM42.7277 42.0639L38.4932 31.6352C37.7876 32.1864 37.0073 32.6448 36.1197 32.8839C34.1532 33.4127 34.5844 33.182 33.7752 33.9948C32.4881 35.2867 30.7773 35.9983 28.9573 35.9983C27.7962 35.9983 26.6734 35.6655 25.6617 35.1002L30.5197 47.0645C30.9294 48.0742 32.2408 48.3208 32.9865 47.5295L36.3698 43.9408L41.2876 44.1292C42.3721 44.1705 43.1374 43.0727 42.7277 42.0639ZM31.5464 31.8733C32.9725 30.4155 33.1358 30.5411 35.1668 29.9852C36.4632 29.6298 37.4768 28.5939 37.824 27.2683C38.5221 24.6058 38.341 24.9273 40.246 22.9792C41.1952 22.0089 41.5657 20.5942 41.2185 19.2686C40.5213 16.608 40.5204 16.9792 41.2185 14.3158C41.5657 12.9902 41.1952 11.5755 40.246 10.6052C38.341 8.65703 38.5221 8.97766 37.824 6.3161C37.4768 4.99047 36.4632 3.95453 35.1668 3.59922C32.5646 2.88578 32.8782 3.07235 30.9714 1.12328C30.0222 0.152971 28.6381 -0.226716 27.3417 0.128596C24.7405 0.841096 25.1036 0.842034 22.4977 0.128596C21.2013 -0.226716 19.8172 0.152034 18.868 1.12328C16.963 3.07141 17.2766 2.88578 14.6736 3.59922C13.3772 3.95453 12.3636 4.99047 12.0164 6.3161C11.3192 8.97766 11.4993 8.65703 9.59436 10.6052C8.64516 11.5755 8.2737 12.9902 8.62183 14.3158C9.31903 16.9745 9.31996 16.6033 8.62183 19.2677C8.27463 20.5933 8.64516 22.008 9.59436 22.9792C11.4993 24.9273 11.3182 24.6058 12.0164 27.2683C12.3636 28.5939 13.3772 29.6298 14.6736 29.9852C16.7624 30.557 16.9182 30.467 18.293 31.8733C19.5278 33.1361 21.4514 33.362 22.9354 32.4189C23.5289 32.0405 24.2173 31.8395 24.9202 31.8395C25.6231 31.8395 26.3115 32.0405 26.9049 32.4189C28.388 33.362 30.3116 33.1361 31.5464 31.8733ZM16.1146 16.4945C16.1146 11.523 20.057 7.49266 24.9197 7.49266C29.7824 7.49266 33.7248 11.523 33.7248 16.4945C33.7248 21.4661 29.7824 25.4964 24.9197 25.4964C20.057 25.4964 16.1146 21.4661 16.1146 16.4945Z" fill="#00A0C1"/>
</g>
<defs>
<clipPath id="clip0_1_455">
<rect width="35.84" height="48" fill="white" transform="translate(7)"/>
</clipPath>
</defs>
</svg>
