<svg width="49" height="48" viewBox="0 0 49 48" fill="none" xmlns="http://www.w3.org/2000/svg">
<g clip-path="url(#clip0_1_436)">
<g clip-path="url(#clip1_1_436)">
<path d="M24.8406 22.8023C29.1448 22.8023 32.4925 19.3069 32.4925 15.0172C32.4925 10.7274 28.9854 7.39093 24.6812 7.39093C20.377 7.39093 17.0293 10.8863 17.0293 15.0172C17.0293 19.3069 20.5364 22.8023 24.8406 22.8023ZM24.6812 10.5685C24.8406 10.5685 24.8406 10.5685 24.6812 10.5685C27.2318 10.5685 29.3042 12.634 29.3042 15.176C29.3042 17.7181 27.2318 19.6247 24.6812 19.6247C22.1306 19.6247 20.2176 17.5592 20.2176 15.176C20.2176 12.634 22.29 10.5685 24.6812 10.5685Z" fill="#00A0C1"/>
<path d="M48.434 21.8487C45.4051 19.1477 41.4198 17.7178 37.275 17.8767H35.9997C35.6808 19.1477 35.2026 20.2599 34.5649 21.2132C35.5214 21.0543 36.3185 21.0543 37.275 21.0543C40.3039 20.8954 43.3327 21.8487 45.724 23.5964V35.0357H48.9123V22.3253L48.434 21.8487Z" fill="#00A0C1"/>
<path d="M33.6083 7.70814C34.4053 5.80158 36.6371 4.8483 38.7095 5.6427C40.6225 6.4371 41.579 8.66141 40.7819 10.7269C40.1443 12.1568 38.7095 13.1101 37.2748 13.1101C36.956 13.1101 36.4777 13.1101 36.1589 12.9512C36.3183 13.7456 36.3183 14.54 36.3183 15.1755V16.1288C36.6371 16.1288 36.956 16.2876 37.2748 16.2876C41.2602 16.2876 44.4485 13.1101 44.4485 9.29693C44.4485 5.32494 41.2602 2.14734 37.4342 2.14734C34.8836 2.14734 32.6518 3.41838 31.3765 5.6427C32.1735 6.11934 32.9706 6.75486 33.6083 7.70814Z" fill="#00A0C1"/>
<path d="M15.4352 21.3722C14.7975 20.4189 14.3193 19.3068 14.0005 18.0357H12.7252C8.58037 17.8768 4.59501 19.3068 1.56613 21.8488L1.08789 22.3255V35.0359H4.27618V23.5965C6.82681 21.8488 9.69628 20.8956 12.7252 21.0544C13.6816 21.0544 14.6381 21.2133 15.4352 21.3722Z" fill="#00A0C1"/>
<path d="M12.7251 16.1294C13.044 16.1294 13.3628 16.1294 13.6816 15.9705V15.0172C13.6816 14.2228 13.6816 13.4284 13.841 12.7929C13.5222 12.9518 13.044 12.9518 12.7251 12.9518C10.6527 12.9518 8.89917 11.2041 8.89917 9.13868C8.89917 7.07324 10.6527 5.32556 12.7251 5.32556C14.3193 5.32556 15.754 6.27884 16.3917 7.70876C17.0293 6.91436 17.9858 6.11996 18.7829 5.48444C16.7105 2.14796 12.4063 1.0358 9.05859 3.10124C5.71088 5.16668 4.59498 9.45644 6.66737 12.7929C7.94269 14.8584 10.1745 16.1294 12.7251 16.1294Z" fill="#00A0C1"/>
<path d="M37.9128 31.3816L37.594 30.905C34.4057 27.4096 29.9421 25.3442 25.1596 25.5031C20.3772 25.3442 15.7542 27.4096 12.5659 30.905L12.2471 31.3816V43.4565C12.2471 44.8864 13.363 46.1574 14.9571 46.1574H35.3622C36.7969 46.1574 38.0722 44.8864 38.0722 43.4565V31.3816H37.9128ZM34.7245 42.9798H15.4354V32.4938C17.986 29.9517 21.4931 28.6807 25.1596 28.6807C28.6668 28.5218 32.1739 29.9517 34.7245 32.4938V42.9798Z" fill="#00A0C1"/>
</g>
</g>
<defs>
<clipPath id="clip0_1_436">
<rect width="48" height="48" fill="white" transform="translate(0.5)"/>
</clipPath>
<clipPath id="clip1_1_436">
<rect width="48" height="44.2105" fill="white" transform="translate(1 2)"/>
</clipPath>
</defs>
</svg>
