<svg width="48" height="28" viewBox="0 0 48 28" fill="none" xmlns="http://www.w3.org/2000/svg">
<path d="M43.1501 12.2821C42.5746 12.2863 42.0045 12.3961 41.4673 12.6063L35.727 7.82161C35.8682 7.29999 35.9687 6.75888 35.9687 6.18852C35.9687 2.81022 33.3021 0.0949097 29.9843 0.0949097C26.6665 0.0949097 23.9998 2.81022 23.9998 6.18852C23.9998 7.15375 24.2392 8.05316 24.627 8.8624L17.6635 17.2423C17.3848 17.1892 17.102 17.1607 16.8185 17.157C16.39 17.157 15.9855 17.2301 15.5929 17.3374L9.45761 11.0902C9.56533 10.6929 9.63714 10.281 9.63714 9.84468C9.63714 7.144 7.50189 4.9698 4.84958 4.9698C2.19727 4.9698 0.0620117 7.144 0.0620117 9.84468C0.0620117 12.5454 2.19727 14.7196 4.84958 14.7196C5.27806 14.7196 5.68261 14.6464 6.07519 14.5392L12.2105 20.7864C12.0954 21.1913 12.035 21.6104 12.0309 22.0319C12.0309 24.7326 14.1662 26.9068 16.8185 26.9068C19.4708 26.9068 21.6061 24.7326 21.6061 22.0319C21.6061 21.4542 21.4912 20.9107 21.3116 20.3964L28.2847 12.0067C28.8281 12.1676 29.3906 12.2821 29.9843 12.2821C30.929 12.2768 31.8588 12.042 32.6964 11.5972L38.4391 16.3819C38.3941 16.6379 38.3685 16.897 38.3625 17.157C38.3625 19.8577 40.4978 22.0319 43.1501 22.0319C45.8024 22.0319 47.9377 19.8577 47.9377 17.157C47.9377 14.4563 45.8024 12.2821 43.1501 12.2821Z" fill="#00A0C1"/>
</svg>
